<svg xmlns="http://www.w3.org/2000/svg" xmlns:xlink="http://www.w3.org/1999/xlink" width="500" zoomAndPan="magnify" viewBox="0 0 375 374.999991" height="500" preserveAspectRatio="xMidYMid meet" version="1.0"><defs><g/><clipPath id="8493bdedd3"><path d="M 0.75 0.75 L 374.25 0.75 L 374.25 374.25 L 0.75 374.25 Z M 0.75 0.75 " clip-rule="nonzero"/></clipPath><clipPath id="dfc25b0ea0"><path d="M 0 37.5 L 0 337.5 C 0 358.210938 16.789062 375 37.5 375 L 337.5 375 C 358.210938 375 375 358.210938 375 337.5 L 375 37.5 C 375 16.789062 358.210938 0 337.5 0 L 37.5 0 C 16.789062 0 0 16.789062 0 37.5 Z M 0 37.5 " clip-rule="nonzero"/></clipPath><clipPath id="866ca7a04e"><path d="M 38.398438 0.898438 L 336.601562 0.898438 C 357.3125 0.898438 374.101562 17.6875 374.101562 38.398438 L 374.101562 336.601562 C 374.101562 357.3125 357.3125 374.101562 336.601562 374.101562 L 38.398438 374.101562 C 17.6875 374.101562 0.898438 357.3125 0.898438 336.601562 L 0.898438 38.398438 C 0.898438 17.6875 17.6875 0.898438 38.398438 0.898438 Z M 38.398438 0.898438 " clip-rule="nonzero"/></clipPath><clipPath id="7dbec3bab2"><path d="M 0 37.5 L 0 337.5 C 0 358.210938 16.789062 375 37.5 375 L 337.5 375 C 358.210938 375 375 358.210938 375 337.5 L 375 37.5 C 375 16.789062 358.210938 0 337.5 0 L 37.5 0 C 16.789062 0 0 16.789062 0 37.5 Z M 0 37.5 " clip-rule="nonzero"/></clipPath><clipPath id="67812306b0"><path d="M 0 37.5 L 0 337.5 C 0 358.210938 16.789062 375 37.5 375 L 337.5 375 C 358.210938 375 375 358.210938 375 337.5 L 375 37.5 C 375 16.789062 358.210938 0 337.5 0 L 37.5 0 C 16.789062 0 0 16.789062 0 37.5 Z M 0 37.5 " clip-rule="nonzero"/></clipPath></defs><g clip-path="url(#8493bdedd3)"><g clip-path="url(#dfc25b0ea0)"><g clip-path="url(#866ca7a04e)"><rect x="-37.5" width="450" fill="#f1f4f6" y="-37.499999" height="449.999989" fill-opacity="1"/></g></g></g><g clip-path="url(#7dbec3bab2)"><g clip-path="url(#67812306b0)"><path stroke-linecap="butt" transform="matrix(0.75, 0, 0, 0.75, 0.0000045, 0)" fill="none" stroke-linejoin="miter" d="M -0.000006 50.000003 L -0.000006 450.00003 C -0.000006 477.614615 22.385412 500.000033 49.999997 500.000033 L 450.000024 500.000033 C 477.614609 500.000033 500.000027 477.614615 500.000027 450.00003 L 500.000027 50.000003 C 500.000027 22.385418 477.614609 0 450.000024 0 L 49.999997 0 C 22.385412 0 -0.000006 22.385418 -0.000006 50.000003 Z M -0.000006 50.000003 " stroke="#3a3a37" stroke-width="18" stroke-opacity="1" stroke-miterlimit="4"/></g></g><g fill="#3a3a37" fill-opacity="1"><g transform="translate(41.461689, 255.317683)"><g><path d="M 127.765625 -94.1875 L 127.234375 -94.265625 L 93.125 0 L 76 0 L 42.0625 -93.921875 L 41.53125 -93.828125 L 43.984375 -37.953125 L 43.984375 -17.921875 L 57.625 -15.296875 L 57.625 0 L 4.890625 0 L 4.890625 -15.296875 L 18.453125 -17.921875 L 18.453125 -109.3125 L 4.890625 -111.9375 L 4.890625 -127.328125 L 51.765625 -127.328125 L 84.21875 -33.5 L 84.734375 -33.5 L 117.4375 -127.328125 L 164.484375 -127.328125 L 164.484375 -111.9375 L 150.84375 -109.3125 L 150.84375 -17.921875 L 164.484375 -15.296875 L 164.484375 0 L 111.765625 0 L 111.765625 -15.296875 L 125.3125 -17.921875 L 125.3125 -37.953125 Z M 127.765625 -94.1875 "/></g></g></g><g fill="#3a3a37" fill-opacity="1"><g transform="translate(210.137188, 255.317683)"><g><path d="M 62.171875 -127.328125 C 77.742188 -127.328125 90.570312 -122.351562 100.65625 -112.40625 C 110.738281 -102.46875 115.78125 -89.71875 115.78125 -74.15625 L 115.78125 -53.078125 C 115.78125 -37.453125 110.738281 -24.695312 100.65625 -14.8125 C 90.570312 -4.9375 77.742188 0 62.171875 0 L 4.890625 0 L 4.890625 -15.296875 L 18.453125 -17.921875 L 18.453125 -109.3125 L 4.890625 -111.9375 L 4.890625 -127.328125 Z M 43.984375 -107.65625 L 43.984375 -19.59375 L 60.859375 -19.59375 C 70.015625 -19.59375 77.1875 -22.679688 82.375 -28.859375 C 87.5625 -35.035156 90.15625 -43.109375 90.15625 -53.078125 L 90.15625 -74.328125 C 90.15625 -84.179688 87.5625 -92.195312 82.375 -98.375 C 77.1875 -104.5625 70.015625 -107.65625 60.859375 -107.65625 Z M 43.984375 -107.65625 "/></g></g></g></svg>